<svg width="190" height="29" viewBox="0 0 190 29" fill="none" xmlns="http://www.w3.org/2000/svg">
<g clip-path="url(#clip0_20_3212)">
<path d="M0 0.92865H3.9855C4.57466 0.92865 5.10317 1.00481 5.5797 1.16137C6.05623 1.31793 6.45911 1.53797 6.79268 1.82993C7.12625 2.12189 7.38184 2.46886 7.55512 2.87084C7.73274 3.27705 7.82371 3.72558 7.82371 4.22488V4.2545C7.82371 4.8088 7.71541 5.29541 7.50314 5.71432C7.29086 6.13322 7.00062 6.48442 6.63672 6.76369C6.2685 7.04719 5.83962 7.25876 5.3501 7.40686C4.86058 7.55072 4.33206 7.62689 3.77323 7.62689H1.76315V10.8004H0V0.92865ZM3.83388 6.06129C4.50968 6.06129 5.04252 5.89626 5.43241 5.56622C5.82229 5.23617 6.01724 4.81304 6.01724 4.29258V4.26296C6.01724 3.67903 5.81796 3.23474 5.42374 2.93854C5.02953 2.64235 4.49668 2.49425 3.82955 2.49425H1.76315V6.06129H3.83388Z" fill="black"/>
<path d="M12.5283 0.92865H20.0055V2.49425H14.2915V5.03307H19.3557V6.59867H14.2915V9.23481H20.0791V10.8004H12.5283V0.92865Z" fill="black"/>
<path d="M25.0826 0.92865H29.5837C30.2205 0.92865 30.7836 1.01751 31.2732 1.19099C31.7627 1.36448 32.1742 1.60567 32.4991 1.91879C32.7677 2.18959 32.9757 2.50695 33.1186 2.86238C33.2616 3.21781 33.3352 3.61556 33.3352 4.04716V4.07678C33.3352 4.48299 33.2746 4.84689 33.1533 5.16847C33.032 5.49429 32.8674 5.77779 32.6551 6.02744C32.4428 6.27709 32.1916 6.48865 31.897 6.66214C31.6024 6.83563 31.2775 6.97103 30.9223 7.06412L33.6515 10.8004H31.5591L29.0681 7.36031H26.8371V10.8004H25.0783V0.92865H25.0826ZM29.4494 5.8201C30.0862 5.8201 30.593 5.672 30.9699 5.37581C31.3468 5.07961 31.5331 4.6734 31.5331 4.16564V4.13602C31.5331 3.59864 31.3511 3.18819 30.9829 2.91316C30.6147 2.63389 30.0992 2.49425 29.432 2.49425H26.8415V5.8201H29.4494Z" fill="black"/>
<path d="M41.9517 10.9358C41.172 10.9358 40.4268 10.8046 39.7164 10.5465C39.0016 10.2884 38.3431 9.89067 37.741 9.35752L38.811 8.11773C39.3005 8.53241 39.7944 8.84976 40.2969 9.06979C40.7951 9.28982 41.3626 9.39983 41.9994 9.39983C42.5496 9.39983 42.9828 9.28559 43.3033 9.06133C43.6239 8.83706 43.7885 8.53664 43.7885 8.16005V8.13043C43.7885 7.95271 43.7582 7.79615 43.6932 7.65651C43.6282 7.52111 43.5156 7.38994 43.3467 7.26723C43.1777 7.14452 42.9438 7.0345 42.6535 6.92872C42.3589 6.82717 41.9777 6.72138 41.5012 6.61983C40.9597 6.49712 40.4832 6.35749 40.063 6.20516C39.6427 6.0486 39.2918 5.86242 39.0059 5.64239C38.72 5.42236 38.5034 5.15155 38.3561 4.82997C38.2088 4.51262 38.1308 4.12333 38.1308 3.67481V3.64519C38.1308 3.22205 38.2175 2.83277 38.3864 2.48156C38.5597 2.13036 38.7937 1.82994 39.0969 1.58029C39.3958 1.33064 39.7597 1.13599 40.1799 0.996358C40.6045 0.856723 41.0637 0.78479 41.5662 0.78479C42.307 0.78479 42.9741 0.890574 43.5676 1.10214C44.1611 1.31371 44.7156 1.6226 45.2354 2.02458L44.2824 3.3363C43.8189 3.00625 43.364 2.7566 42.9134 2.58312C42.4629 2.40963 42.0037 2.32077 41.5445 2.32077C41.0247 2.32077 40.6218 2.43502 40.3315 2.65928C40.0413 2.88354 39.8983 3.16281 39.8983 3.48863V3.51825C39.8983 3.70443 39.933 3.87368 39.998 4.01755C40.063 4.16141 40.1886 4.29682 40.3662 4.41106C40.5438 4.52954 40.7907 4.63956 41.1026 4.74111C41.4146 4.84266 41.8131 4.95268 42.294 5.06692C42.8225 5.1981 43.2947 5.34619 43.7062 5.50275C44.1178 5.66355 44.4557 5.85819 44.7286 6.08668C44.9972 6.31517 45.2051 6.58598 45.3437 6.89064C45.4824 7.1953 45.5517 7.55073 45.5517 7.95271V7.98233C45.5517 8.44355 45.465 8.85822 45.2874 9.22212C45.1098 9.59025 44.8629 9.89913 44.551 10.153C44.2347 10.4069 43.8578 10.6015 43.416 10.7327C42.9741 10.8639 42.4889 10.9316 41.9604 10.9316L41.9517 10.9358Z" fill="black"/>
<path d="M55.3465 10.9655C54.5667 10.9655 53.8562 10.8301 53.2108 10.5635C52.5653 10.2969 52.0108 9.933 51.5516 9.47179C51.088 9.01057 50.7285 8.47319 50.4686 7.85964C50.2086 7.24609 50.0787 6.59023 50.0787 5.89206V5.86244C50.0787 5.16849 50.2086 4.51263 50.4686 3.89486C50.7285 3.28131 51.0924 2.73969 51.5646 2.27425C52.0368 1.8088 52.5956 1.44067 53.2367 1.16563C53.8822 0.894823 54.5927 0.755188 55.3725 0.755188C56.1522 0.755188 56.8627 0.890591 57.5082 1.15717C58.1536 1.42374 58.7081 1.78764 59.1673 2.24886C59.6309 2.71008 59.9904 3.24746 60.2504 3.861C60.5103 4.47455 60.6402 5.13041 60.6402 5.82859V5.85821C60.6402 6.55215 60.5103 7.20801 60.2504 7.82579C59.9904 8.43933 59.6265 8.98095 59.1543 9.4464C58.6822 9.91185 58.1233 10.28 57.4822 10.555C56.8367 10.8258 56.1262 10.9655 55.3465 10.9655ZM55.3768 9.37446C55.875 9.37446 56.3342 9.28137 56.7501 9.09943C57.1659 8.91748 57.5255 8.66783 57.8201 8.35048C58.119 8.03736 58.3486 7.665 58.5175 7.24186C58.6865 6.81872 58.7688 6.36597 58.7688 5.88783V5.85821C58.7688 5.38006 58.6865 4.92731 58.5175 4.49994C58.3486 4.07257 58.1147 3.70021 57.8157 3.38709C57.5125 3.07397 57.1529 2.82009 56.7284 2.63391C56.3082 2.44773 55.849 2.35041 55.3508 2.35041C54.8526 2.35041 54.3934 2.4435 53.9775 2.62545C53.5617 2.8074 53.2021 3.05705 52.9075 3.3744C52.6086 3.68752 52.379 4.05988 52.21 4.48301C52.0411 4.90615 51.9588 5.35891 51.9588 5.83705V5.86667C51.9588 6.34481 52.0411 6.79757 52.21 7.22917C52.379 7.65653 52.6129 8.02889 52.9162 8.34201C53.2194 8.65513 53.579 8.90901 53.9992 9.09519C54.4194 9.28137 54.8786 9.3787 55.3811 9.3787L55.3768 9.37446Z" fill="black"/>
<path d="M65.6784 0.92865H67.3203L72.7223 7.7496V0.92865H74.4812V10.7962H72.9996L67.4416 3.77635V10.7962H65.6827V0.92865H65.6784Z" fill="black"/>
<path d="M83.5439 0.85675H85.1901L89.6348 10.7962H87.759L86.7366 8.41396H81.9583L80.9186 10.7962H79.0992L83.5439 0.85675ZM86.0825 6.87797L84.3366 2.93012L82.6038 6.87797H86.0825Z" fill="black"/>
<path d="M94.2527 0.92865H96.0116V9.23057H101.323V10.7962H94.2527V0.92865Z" fill="black"/>
<path d="M106.175 0.92865H107.938V10.7962H106.175V0.92865Z" fill="black"/>
<path d="M113.171 9.51408L119.132 2.46463H113.357V0.92865H121.436V2.21075L115.475 9.26019H121.436V10.7962H113.167V9.51408H113.171Z" fill="black"/>
<path d="M130.131 0.85675H131.777L136.222 10.7962H134.346L133.319 8.41396H128.541L127.501 10.7962H125.682L130.131 0.85675ZM132.669 6.87797L130.924 2.93012L129.191 6.87797H132.669Z" fill="black"/>
<path d="M143.318 2.53657H140.112V0.92865H148.308V2.53657H145.102V10.7962H143.313V2.53657H143.318Z" fill="black"/>
<path d="M153.177 0.92865H154.936V10.7962H153.177V0.92865Z" fill="black"/>
<path d="M165.355 10.9655C164.575 10.9655 163.865 10.8301 163.219 10.5635C162.574 10.2969 162.019 9.933 161.56 9.47179C161.096 9.01057 160.737 8.47319 160.477 7.85964C160.217 7.24609 160.087 6.59023 160.087 5.89206V5.86244C160.087 5.16849 160.217 4.51263 160.477 3.89486C160.737 3.28131 161.101 2.73969 161.573 2.27425C162.045 1.8088 162.604 1.44067 163.245 1.16563C163.891 0.894823 164.601 0.755188 165.381 0.755188C166.161 0.755188 166.871 0.890591 167.517 1.15717C168.162 1.42374 168.717 1.78764 169.176 2.24886C169.639 2.71008 169.999 3.24746 170.259 3.861C170.519 4.47455 170.649 5.13041 170.649 5.82859V5.85821C170.649 6.55215 170.519 7.20801 170.259 7.82579C169.999 8.43933 169.635 8.98095 169.163 9.4464C168.691 9.91185 168.132 10.28 167.491 10.555C166.849 10.8301 166.135 10.9655 165.355 10.9655ZM165.385 9.37446C165.883 9.37446 166.343 9.28137 166.758 9.09943C167.174 8.91748 167.534 8.66783 167.828 8.35048C168.127 8.03736 168.357 7.665 168.526 7.24186C168.695 6.81872 168.777 6.36597 168.777 5.88783V5.85821C168.777 5.38006 168.695 4.92731 168.526 4.49994C168.357 4.07257 168.123 3.70021 167.82 3.38709C167.517 3.07397 167.157 2.82009 166.737 2.63391C166.317 2.44773 165.857 2.35041 165.355 2.35041C164.852 2.35041 164.397 2.4435 163.982 2.62545C163.566 2.8074 163.206 3.05705 162.912 3.3744C162.613 3.68752 162.383 4.05988 162.214 4.48301C162.045 4.90615 161.963 5.35891 161.963 5.83705V5.86667C161.963 6.34481 162.045 6.79757 162.214 7.22917C162.383 7.65653 162.617 8.02889 162.916 8.34201C163.219 8.65513 163.579 8.90901 164.003 9.09519C164.423 9.28137 164.883 9.3787 165.385 9.3787V9.37446Z" fill="black"/>
<path d="M175.691 0.92865H177.333L182.735 7.7496V0.92865H184.498V10.7962H183.017L177.459 3.77635V10.7962H175.7V0.92865H175.691Z" fill="black"/>
<path d="M68.1477 18.2603H68.8538L72.9086 24.0954L76.9635 18.2603H77.6696V28.1278H76.9201V19.5593L72.9216 25.2421H72.8653L68.8668 19.5593V28.1278H68.1434V18.2603H68.1477Z" fill="black"/>
<path d="M87.3994 18.1884H88.1228L92.8275 28.1278H92.0044L90.7177 25.3647H84.7568L83.4702 28.1278H82.6904L87.3951 18.1884H87.3994ZM90.4015 24.7004L87.7459 18.9923L85.0774 24.7004H90.4015Z" fill="black"/>
<path d="M97.844 18.2603H98.5934V27.4635H104.524V28.1278H97.844V18.2603Z" fill="black"/>
<path d="M109.666 18.2603H110.416V27.4635H116.346V28.1278H109.666V18.2603Z" fill="black"/>
<path d="M62.5334 22.8937H0V23.4226H62.5334V22.8937Z" fill="#AE201F"/>
<path d="M184.49 22.8937H121.956V23.4226H184.49V22.8937Z" fill="#AE201F"/>
<path d="M189.848 2.08802C189.749 1.85953 189.61 1.65642 189.437 1.48717C189.264 1.31368 189.056 1.17828 188.822 1.08096C188.583 0.979406 188.328 0.932861 188.055 0.932861C187.782 0.932861 187.526 0.983638 187.288 1.08519C187.05 1.18674 186.842 1.32638 186.664 1.49986C186.487 1.67335 186.352 1.87645 186.248 2.10495C186.149 2.33344 186.097 2.57886 186.097 2.83697V2.84543C186.097 3.10355 186.149 3.34897 186.248 3.57746C186.348 3.80595 186.487 4.00906 186.66 4.17831C186.833 4.3518 187.041 4.4872 187.275 4.58452C187.513 4.68608 187.769 4.73262 188.042 4.73262C188.315 4.73262 188.57 4.68184 188.809 4.58029C189.047 4.47874 189.255 4.3391 189.433 4.16562C189.61 3.99213 189.749 3.78903 189.848 3.56053C189.948 3.33204 190 3.08662 190 2.82851V2.82005C190 2.56193 189.948 2.31652 189.848 2.08802ZM189.796 2.83274C189.796 3.06547 189.753 3.28973 189.662 3.49706C189.571 3.7044 189.45 3.88635 189.294 4.04291C189.138 4.19524 188.952 4.31795 188.739 4.41104C188.527 4.50413 188.293 4.54644 188.046 4.54644C187.799 4.54644 187.57 4.4999 187.357 4.41104C187.145 4.32218 186.963 4.19947 186.807 4.04714C186.651 3.89481 186.53 3.71286 186.439 3.50553C186.352 3.29819 186.309 3.07816 186.309 2.8412V2.83274C186.309 2.59578 186.352 2.37575 186.443 2.16842C186.534 1.96108 186.656 1.77913 186.812 1.62257C186.968 1.47024 187.154 1.34753 187.366 1.25444C187.578 1.16135 187.812 1.11904 188.059 1.11904C188.306 1.11904 188.536 1.16559 188.748 1.25444C188.96 1.3433 189.142 1.46601 189.298 1.61834C189.454 1.77067 189.575 1.95262 189.666 2.15995C189.753 2.36729 189.796 2.58732 189.796 2.82428V2.83274Z" fill="black"/>
<path d="M188.484 3.02317C188.622 2.98509 188.739 2.91739 188.826 2.81584C188.913 2.71429 188.956 2.58734 188.956 2.42232V2.41386C188.956 2.24037 188.9 2.10074 188.787 1.99919C188.64 1.85532 188.432 1.78339 188.168 1.78339H187.258V3.77212H187.648V3.08241H188.072L188.566 3.77212H189.03L188.479 3.01894L188.484 3.02317ZM188.155 2.7566H187.648V2.12613H188.155C188.28 2.12613 188.38 2.15151 188.449 2.20652C188.523 2.2573 188.557 2.33769 188.557 2.43925V2.44771C188.557 2.5408 188.523 2.61696 188.449 2.67197C188.375 2.72698 188.28 2.7566 188.155 2.7566Z" fill="black"/>
</g>
<defs>
<clipPath id="clip0_20_3212">
<rect width="190" height="27.3684" fill="white" transform="translate(0 0.759399)"/>
</clipPath>
</defs>
</svg>
